<svg opacity=".5" height="16" width="16" xmlns="http://www.w3.org/2000/svg"><circle cx="8.056" cy="7.972" r="6.98" stroke="#fff" stroke-width=".7" stroke-linecap="square" stroke-miterlimit="4.8" paint-order="markers fill stroke" fill="none"/><path style="mix-blend-mode:normal" fill="#fff" stroke="#fff" stroke-width=".5" stroke-linecap="round" stroke-miterlimit="4.8" d="M6.143 3.344h3.955v1.417H6.143z"/><circle cx="8.156" cy="6.991" r="1.034" fill="#fff" stroke="#fff" stroke-width=".5" stroke-linecap="round" stroke-miterlimit="4.8"/><circle cx="5.924" cy="12.209" r="1.034" fill="#fff" stroke="#fff" stroke-width=".5" stroke-linecap="round" stroke-miterlimit="4.8"/><circle cx="10.073" cy="12.209" r="1.034" fill="#fff" stroke="#fff" stroke-width=".5" stroke-linecap="round" stroke-miterlimit="4.8"/><path fill="#fff" stroke="#fff" stroke-width=".5" stroke-linecap="round" stroke-miterlimit="4.8" d="M3.017 6.079h1.892V7.86H3.017zM11.353 6.078h1.892v1.781h-1.892z"/><path d="M4.054 3.945l-.004.931M12.34 3.88l-.003.954" fill="#fff" stroke="#fff" stroke-width=".18" stroke-miterlimit="4.8"/><path d="M12.373 3.986l-8.352.04.07.01" fill="#fff" stroke="#fff" stroke-width=".2" stroke-miterlimit="4.8"/><path d="M5.009 7.012l.918.017M6.04 9.101l-.026.918M10.15 9.117l-.026.918M11.275 7.031l-.918-.013" fill="#fff" stroke="#fff" stroke-width=".186" stroke-miterlimit="4.8"/><path d="M6.024 9.159l4.14.005M8.114 9.234l.012-1.442" fill="#fff" stroke="#fff" stroke-width=".2" stroke-miterlimit="4.8"/><path d="M11.905 4.82l.43.908.411-.914zM3.663 4.788l.429.908.412-.915zM9.715 9.94l.43.908.412-.915zM5.59 9.968l.43.907.412-.914zM5.815 7.418l.908-.429-.914-.412zM10.49 6.564l-.908.43.914.411z" fill="#fff" stroke="#fff" stroke-width=".083" stroke-miterlimit="4.8"/></svg>